<?xml version="1.0" encoding="UTF-8"?><svg id="Layer_1" xmlns="http://www.w3.org/2000/svg" viewBox="0 0 279.65 177.68"><g opacity=".97"><path d="m78.3,114.05c30.56-10.82,46.55-44.37,35.73-74.93C103.22,8.56,69.67-7.44,39.12,3.38,8.56,14.21-7.44,47.75,3.38,78.31c10.82,30.56,44.36,46.56,74.92,35.74Z" fill="#e4e4e4"/><path d="m75.37,105.62c25.71-9.04,39.06-37.38,29.81-63.31C95.94,16.38,67.59,2.68,41.88,11.72,16.16,20.75,2.82,49.1,12.07,75.03c9.25,25.93,37.59,39.63,63.31,30.59Z" fill="none" stroke="#fff" stroke-miterlimit="10" stroke-width="1.53"/><path d="m75.35,105.57c16.92-5.95,23.16-31.77,13.92-57.67C80.03,22,58.82,5.82,41.9,11.77c-16.92,5.95-23.16,31.77-13.92,57.67,9.24,25.9,30.44,42.08,47.37,36.13Z" fill="none" stroke="#fff" stroke-miterlimit="10" stroke-width="1.53"/><path d="m75.3,105.5c8.15-2.87,7.29-26.16-1.93-52.02-9.21-25.87-23.28-44.51-31.43-41.64-8.15,2.87-7.29,26.16,1.93,52.02,9.21,25.86,23.28,44.51,31.43,41.64Z" fill="none" stroke="#fff" stroke-miterlimit="10" stroke-width="1.53"/><path d="m11.75,74.93l93.5-33.12M9.06,56.63l86.8-30.74M14.86,35.34l63.07-22.34m-39.04,91.16l63.69-22.56m-81.43,9.58l87.04-30.82" fill="none" stroke="#fff" stroke-linecap="round" stroke-miterlimit="10" stroke-width="1.53"/><path d="m93.08,46.72c-28.14,9.77-32.24,18.32-22.32,46.6-9.93-28.3-18.48-32.47-46.6-22.71,28.14-9.77,32.24-18.32,22.32-46.6,9.92,28.28,18.47,32.45,46.6,22.7Z" fill="#fff"/><path d="m42.06,11.92l33.1,93.49" fill="none" stroke="#fff" stroke-miterlimit="10" stroke-width="1.53"/></g><g opacity=".97"><path d="m188.31,169.03c-8.12,1.35-16.98,1.47-26.12.12-33.12-4.91-57.24-27.29-53.88-49.98,3.36-22.7,32.94-37.11,66.06-32.2,9.14,1.35,17.59,4.04,24.97,7.69,8.12-1.35,16.99-1.47,26.12-.12,33.12,4.91,57.24,27.29,53.88,49.98-3.36,22.7-32.94,37.11-66.06,32.2-9.14-1.35-17.59-4.04-24.96-7.69Z" fill="#e4e4e4" fill-rule="evenodd"/><path d="m217.71,135.22c-2.71,17.88-27.48,29.08-55.31,25.03-27.84-4.04-48.23-21.8-45.52-39.68,2.71-17.88,27.48-29.08,55.31-25.03" fill="#e4e4e4"/><path d="m217.71,135.22c-2.71,17.88-27.48,29.08-55.31,25.03-27.84-4.04-48.23-21.8-45.52-39.68,2.71-17.88,27.48-29.08,55.31-25.03" fill="none" stroke="#fff" stroke-linecap="round" stroke-linejoin="round" stroke-width="1.53"/><path d="m185.03,130.47c-2.69,17.82-12.81,31.1-22.6,29.68-9.79-1.42-15.54-17.01-12.85-34.83,2.7-17.82,12.81-31.1,22.6-29.68" fill="#e4e4e4"/><path d="m185.03,130.47c-2.69,17.82-12.81,31.1-22.6,29.68-9.79-1.42-15.54-17.01-12.85-34.83,2.7-17.82,12.81-31.1,22.6-29.68" fill="none" stroke="#fff" stroke-linecap="round" stroke-linejoin="round" stroke-width="1.53"/><path d="m203.01,133.08c-2.7,17.86-20.87,30-40.61,27.13-19.72-2.86-33.53-19.64-30.83-37.5,2.7-17.86,20.87-30,40.61-27.13" fill="#e4e4e4"/><path d="m203.01,133.08c-2.7,17.86-20.87,30-40.61,27.13-19.72-2.86-33.53-19.64-30.83-37.5,2.7-17.86,20.87-30,40.61-27.13m-55.41,24.83l101.06,14.98m-45.74-39.68l-9.54,64.37" fill="none" stroke="#fff" stroke-linecap="round" stroke-linejoin="round" stroke-width="1.53"/><path d="m170.35,128.53c2.72-17.89,27.49-29.11,55.31-25.08,27.82,4.03,48.2,21.79,45.48,39.68-2.72,17.89-27.49,29.11-55.31,25.08" fill="#e4e4e4"/><path d="m170.35,128.53c2.72-17.89,27.49-29.11,55.31-25.08,27.82,4.03,48.2,21.79,45.48,39.68-2.72,17.89-27.49,29.11-55.31,25.08" fill="none" stroke="#fff" stroke-linecap="round" stroke-linejoin="round" stroke-width="1.53"/><path d="m185.05,130.66c2.71-17.87,20.88-30.02,40.61-27.17,19.73,2.85,33.5,19.63,30.79,37.5-2.71,17.87-20.88,30.02-40.61,27.17m55.45-24.84l-101.08-14.99m45.77,39.68l9.54-64.37" fill="none" stroke="#fff" stroke-linecap="round" stroke-linejoin="round" stroke-width="1.53"/><path d="m215.84,168.01c-27.84-4.04-51.12-22.23-48.42-40.11l53.32,7.74-4.9,32.36c-19.74-2.87-33.57-19.68-30.86-37.56l30.86,37.56Z" fill="#e4e4e4"/><path d="m215.84,168.01c-27.84-4.04-51.12-22.23-48.42-40.11l53.32,7.74-4.9,32.36Zm0,0c-19.74-2.87-33.57-19.68-30.86-37.56" fill="none" stroke="#fff" stroke-linecap="round" stroke-linejoin="round" stroke-width="1.53"/><path d="m172.18,95.71c27.85,4.06,51.16,22.25,48.48,40.11l-53.34-7.78,4.87-32.33c19.75,2.88,33.6,19.68,30.91,37.55l-30.91-37.55Z" fill="#e4e4e4"/><path d="m172.18,95.71c27.85,4.06,51.16,22.25,48.48,40.11l-53.34-7.78,4.87-32.33Zm0,0c19.75,2.88,33.6,19.68,30.91,37.55" fill="none" stroke="#fff" stroke-linecap="round" stroke-linejoin="round" stroke-width="1.53"/><path d="m172.17,95.71c9.8,1.43,15.57,17.02,12.89,34.83l-12.89-34.83Z" fill="#e4e4e4"/><path d="m172.17,95.71c9.8,1.43,15.57,17.02,12.89,34.83m-59.14-25.24l141,20.9m-145.77,11.31l141,20.9" fill="none" stroke="#fff" stroke-linecap="round" stroke-linejoin="round" stroke-width="1.53"/></g></svg>