<?xml version="1.0" encoding="UTF-8"?><svg id="Layer_1" xmlns="http://www.w3.org/2000/svg" xmlns:xlink="http://www.w3.org/1999/xlink" viewBox="0 0 437.91 224"><defs><linearGradient id="linear-gradient" x1="-524" y1="281.39" x2="-524" y2="201.39" gradientTransform="translate(564 425.39) scale(1 -1)" gradientUnits="userSpaceOnUse"><stop offset="0" stop-color="#eaeaea"/><stop offset="1" stop-color="#d8d8d8"/></linearGradient></defs><g><path d="m37.19.7h289.81v203.96H49.19c-6.63,0-12-4.61-12-10.3V.7Z" fill="#fff"/><rect x="37.19" y="157" width="400" height="48" fill="#fbfbfb"/><rect x="37" y="156" width="400" height="1" fill="#e8e8e8"/><rect x="108.19" y="2" width="1" height="154" fill="#e8e8e8"/><path d="m181,173.5h40c4.14,0,7.5,3.36,7.5,7.5h0c0,4.14-3.36,7.5-7.5,7.5h-40c-4.14,0-7.5-3.36-7.5-7.5h0c0-4.14,3.36-7.5,7.5-7.5Z" fill="#fff" stroke="#e8e8e8"/><path d="m125.69.5h295v94.5c0,4.14-3.36,7.5-7.5,7.5H133.19c-4.14,0-7.5-3.36-7.5-7.5V.5Z" fill="#fff" stroke="#e8e8e8"/><rect x="223.19" y="2" width="1" height="100" fill="#e8e8e8"/><path d="m156.19,71h36c3.31,0,6,2.69,6,6h0c0,3.31-2.69,6-6,6h-36c-3.31,0-6-2.69-6-6h0c0-3.31,2.69-6,6-6Z" fill="#e8e8e8"/><path d="m255.19,71h36c3.31,0,6,2.69,6,6h0c0,3.31-2.69,6-6,6h-36c-3.31,0-6-2.69-6-6h0c0-3.31,2.69-6,6-6Z" fill="#e8e8e8"/><path d="m245,173h48c4.42,0,8,3.58,8,8h0c0,4.42-3.58,8-8,8h-48c-4.42,0-8-3.58-8-8h0c0-4.42,3.58-8,8-8Z" fill="#e8e8e8"/><path d="m128.19,120h192c1.1,0,2,.9,2,2h0c0,1.1-.9,2-2,2h-192c-1.1,0-2-.9-2-2h0c0-1.1.9-2,2-2Z" fill="#e8e8e8"/><path d="m128.19,132h93c1.1,0,2,.9,2,2h0c0,1.1-.9,2-2,2h-93c-1.1,0-2-.9-2-2h0c0-1.1.9-2,2-2Z" fill="#e8e8e8"/></g><path d="m37.38.7h-.69v193.75c0,5.91,7.71,10.71,17.22,10.71h383.5V.7H37.38Z" fill="none" stroke="#e8e8e8"/><path d="m80,184c0,22.09-17.91,40-40,40S0,206.09,0,184s17.91-40,40-40,40,17.91,40,40Z" fill="url(#linear-gradient)"/><path d="m32.67,172l18.67,12-18.67,12v-24Z" fill="none" stroke="#fff" stroke-linecap="round" stroke-linejoin="round" stroke-width="2"/></svg>