<?xml version="1.0" encoding="UTF-8"?><svg id="Layer_1" xmlns="http://www.w3.org/2000/svg" viewBox="0 0 70.49 32.49"><path d="m11.57,5.81c-2.81,0-4.62.81-6.14,2.71v-2.1H0v25.82s.1.05.38.1c.38.1,2.38.52,3.86-.71,1.29-1.1,1.57-2.38,1.57-3.81v-3.72c1.57,1.67,3.33,2.38,5.81,2.38,5.33,0,9.43-4.33,9.43-10.1,0-6.24-3.95-10.57-9.48-10.57Zm-1.05,15.77c-3,0-5.38-2.48-5.38-5.48s2.81-5.33,5.38-5.33c3.05,0,5.38,2.33,5.38,5.38s-2.38,5.43-5.38,5.43Z"/><path d="m28.77,15.77c0,2.24.24,4.95,2.43,7.91.05.05.14.19.14.19-.9,1.52-2,2.57-3.48,2.57-1.14,0-2.29-.62-3.24-1.67-1-1.14-1.48-2.62-1.48-4.19V0h5.57l.05,15.77Z"/><path d="m56.16,16.15l-6.57-9.72h6.76l6.53,9.72-6.53,9.67h-6.76l6.57-9.67Z" fill="#e5a00d"/><path d="m64.63,15.05l5.86-8.62h-6.76l-2.43,3.57,3.33,5.05Z"/><path d="m61.3,22.29l1.14,1.57c1.1,1.71,2.52,2.57,4.19,2.57,1.76-.05,3-1.57,3.48-2.14,0,0-.86-.76-1.95-2.05-1.48-1.71-3.43-4.86-3.48-5l-3.38,5.05Z"/><path d="m44.58,20.24c-1.14,1.05-1.91,1.62-3.48,1.62-2.81,0-4.43-2-4.67-4.19h14.91c.1-.29.14-.67.14-1.29,0-6.05-4.43-10.57-10.24-10.57s-10.05,4.62-10.05,10.38,4.52,10.24,10.19,10.24c3.95,0,7.38-2.24,9.24-6.19h-6.05Zm-3.29-9.86c2.48,0,4.33,1.62,4.76,3.76h-9.43c.48-2.24,2.24-3.76,4.67-3.76Z"/></svg>