<?xml version="1.0" encoding="UTF-8"?><svg id="Layer_2" xmlns="http://www.w3.org/2000/svg" xmlns:xlink="http://www.w3.org/1999/xlink" viewBox="0 0 459.93 209.03"><defs><linearGradient id="linear-gradient" x1="-882.02" y1="294.24" x2="-790.8" y2="223.9" gradientTransform="translate(1017.49 -131.43) rotate(-30) scale(1 -.87) skewX(-26.57)" gradientUnits="userSpaceOnUse"><stop offset="0" stop-color="#000" stop-opacity=".5"/><stop offset=".35" stop-color="#000"/><stop offset="1" stop-color="#000" stop-opacity=".66"/></linearGradient><linearGradient id="linear-gradient-2" x1="-882.02" y1="294.24" x2="-790.8" y2="223.9" gradientTransform="translate(1130.98 -123.81) rotate(-30) scale(1 -.87) skewX(-26.57)" xlink:href="#linear-gradient"/><linearGradient id="linear-gradient-3" x1="-882.02" x2="-790.8" y2="223.9" gradientTransform="translate(1119.54 -190.34) rotate(-30) scale(1 -.87) skewX(-26.57)" xlink:href="#linear-gradient"/><linearGradient id="linear-gradient-4" x1="-882.02" x2="-790.8" y2="223.9" gradientTransform="translate(1246.23 -117.21) rotate(-30) scale(1 -.87) skewX(-26.57)" xlink:href="#linear-gradient"/><linearGradient id="linear-gradient-5" x1="-882.02" y1="294.24" x2="-790.8" y2="223.9" gradientTransform="translate(1233.03 -182.73) rotate(-30) scale(1 -.87) skewX(-26.57)" xlink:href="#linear-gradient"/><linearGradient id="linear-gradient-6" x1="-882.02" y1="294.24" x2="-790.8" y2="223.9" gradientTransform="translate(1335.09 -240.69) rotate(-30) scale(1 -.87) skewX(-26.57)" xlink:href="#linear-gradient"/><linearGradient id="linear-gradient-7" x1="-882.02" y1="294.24" x2="-790.8" y2="223.9" gradientTransform="translate(1221.6 -251.69) rotate(-30) scale(1 -.87) skewX(-26.57)" xlink:href="#linear-gradient"/><linearGradient id="linear-gradient-8" x1="-882.02" y1="294.24" x2="-790.8" y2="223.9" gradientTransform="translate(1348.29 -176.12) rotate(-30) scale(1 -.87) skewX(-26.57)" xlink:href="#linear-gradient"/></defs><g opacity=".25"><path d="m2.87,164.71l74.12-42.79c3.83-2.21,10.03-2.21,13.86,0l35.41,20.44c3.83,2.21,3.83,5.79,0,8l-74.12,42.79c-3.83,2.21-10.03,2.21-13.86,0L2.87,172.71c-3.83-2.21-3.83-5.79,0-8Z" fill="url(#linear-gradient)" fill-opacity=".2"/></g><g opacity=".5"><path d="m116.36,172.33l74.12-42.79c3.83-2.21,10.03-2.21,13.86,0l35.41,20.44c3.83,2.21,3.83,5.79,0,8l-74.12,42.79c-3.83,2.21-10.03,2.21-13.86,0l-35.41-20.44c-3.83-2.21-3.83-5.79,0-8Z" fill="url(#linear-gradient-2)" fill-opacity=".2"/></g><g opacity=".5"><path d="m104.93,105.79l74.12-42.79c3.83-2.21,10.03-2.21,13.86,0l35.41,20.44c3.83,2.21,3.83,5.79,0,8l-74.12,42.79c-3.83,2.21-10.03,2.21-13.86,0l-35.41-20.44c-3.83-2.21-3.83-5.79,0-8Z" fill="url(#linear-gradient-3)" fill-opacity=".2"/></g><g opacity=".5"><path d="m231.62,178.93l74.12-42.79c3.83-2.21,10.03-2.21,13.86,0l35.41,20.44c3.83,2.21,3.83,5.79,0,8l-74.12,42.79c-3.83,2.21-10.03,2.21-13.86,0l-35.41-20.44c-3.83-2.21-3.83-5.79,0-8Z" fill="url(#linear-gradient-4)" fill-opacity=".2"/></g><g opacity=".25"><path d="m218.42,113.41l74.12-42.79c3.83-2.21,10.03-2.21,13.86,0l35.41,20.44c3.83,2.21,3.83,5.79,0,8l-74.12,42.79c-3.83,2.21-10.03,2.21-13.86,0l-35.41-20.44c-3.83-2.21-3.83-5.79,0-8Z" fill="url(#linear-gradient-5)" fill-opacity=".2"/></g><g opacity=".25"><path d="m320.47,55.45l74.12-42.79c3.83-2.21,10.03-2.21,13.86,0l35.41,20.44c3.83,2.21,3.83,5.79,0,8l-74.12,42.79c-3.83,2.21-10.03,2.21-13.86,0l-35.41-20.44c-3.83-2.21-3.83-5.79,0-8Z" fill="url(#linear-gradient-6)" fill-opacity=".2"/></g><g opacity=".25"><path d="m206.98,44.45L281.1,1.66c3.83-2.21,10.03-2.21,13.86,0l35.41,20.44c3.83,2.21,3.83,5.79,0,8l-74.12,42.79c-3.83,2.21-10.03,2.21-13.86,0l-35.41-20.44c-3.83-2.21-3.83-5.79,0-8Z" fill="url(#linear-gradient-7)" fill-opacity=".2"/></g><path d="m333.67,120.01l74.12-42.79c3.83-2.21,10.03-2.21,13.86,0l35.41,20.44c3.83,2.21,3.83,5.79,0,8l-74.12,42.79c-3.83,2.21-10.03,2.21-13.86,0l-35.41-20.44c-3.83-2.21-3.83-5.79,0-8Z" fill="url(#linear-gradient-8)" fill-opacity=".2"/></svg>